<svg width="28" height="27" viewBox="0 0 28 27" fill="none" xmlns="http://www.w3.org/2000/svg">
<g clip-path="url(#clip0_12227_8)">
<mask id="path-2-inside-1_12227_8" fill="white">
<path d="M26.6311 25.1168V23.6809C26.6311 22.2174 25.9463 20.8092 24.8031 19.92C22.1412 17.8546 19.4296 16.4132 18.4797 15.9327V14.2925C18.673 13.8617 18.8332 13.3923 18.9547 12.8842C19.6616 12.6302 20.0482 11.5919 20.3077 10.6752C20.6556 9.45469 20.617 8.59869 20.2083 8.12375C20.6391 5.77664 20.4458 4.04807 19.6395 2.9822C19.2142 2.42442 18.7172 2.18695 18.3859 2.08202C18.1484 1.75066 17.6679 1.19288 16.8561 0.745551C16.0167 0.248517 15.0723 0 14.034 0C13.8463 0 13.6585 0.0110452 13.4928 0.0220904C13.0289 0.0441808 12.5706 0.132542 12.1177 0.281653C12.1122 0.281653 12.1067 0.287175 12.1011 0.287175C11.6041 0.458376 11.1181 0.706893 10.6487 1.0272C10.113 1.36961 9.62149 1.77828 9.19625 2.23113C8.36233 3.08713 7.81007 4.05359 7.5726 5.08632C7.34618 5.94232 7.32961 6.80385 7.51738 7.6488C7.41797 7.7206 7.32961 7.80344 7.25229 7.90284C6.87123 8.4054 6.85466 9.19513 7.19154 10.3935C7.42349 11.2219 7.73276 12.0669 8.25741 12.4479C8.41204 13.2432 8.6716 13.9667 9.01952 14.6073V15.9382C8.06964 16.4187 5.35804 17.8546 2.69615 19.9255C1.55297 20.8147 0.868164 22.2174 0.868164 23.6864V25.1223C0.868164 26.1606 1.71312 27 2.74585 27H24.7534C25.7861 27 26.6311 26.155 26.6311 25.1168ZM2.21568 25.1168V23.6809C2.21568 22.6316 2.70167 21.6265 3.51901 20.9914C6.39077 18.7658 9.31222 17.2968 9.87 17.0262C10.1793 16.8771 10.3726 16.5678 10.3726 16.2199V14.425C10.3726 14.3035 10.3394 14.1876 10.2787 14.0826C9.91419 13.4641 9.66015 12.7241 9.53313 11.8791C9.48895 11.6085 9.29013 11.3931 9.03057 11.3269C8.95878 11.244 8.75444 10.9458 8.49488 10.0235C8.2795 9.2614 8.29606 8.90796 8.31815 8.78094C8.53354 8.79198 8.74892 8.69258 8.88698 8.52137C9.03057 8.33913 9.06923 8.09613 8.99191 7.88075C8.70474 7.07998 8.6716 6.25711 8.8925 5.41767C9.08027 4.61137 9.51104 3.8603 10.1793 3.1755C10.5382 2.78891 10.9524 2.45204 11.3942 2.17038C11.3998 2.16486 11.4108 2.15934 11.4163 2.15381C11.7863 1.89425 12.1729 1.70096 12.554 1.56842C12.5595 1.56842 12.565 1.5629 12.565 1.5629C12.8909 1.45244 13.2277 1.3917 13.5812 1.37513C14.5476 1.29229 15.4147 1.47453 16.1823 1.92187C17.0218 2.38576 17.3642 2.99325 17.3642 2.99325C17.4691 3.20863 17.6569 3.33565 17.8999 3.35222C17.9164 3.35222 18.2754 3.40745 18.5847 3.84373C18.9105 4.30763 19.3744 5.50051 18.7945 8.2839C18.7283 8.59317 18.8884 8.90243 19.1701 9.03498C19.1977 9.13438 19.2419 9.47126 19.0044 10.3107C18.7945 11.0507 18.6233 11.3876 18.5239 11.5367C18.3969 11.5146 18.2644 11.5257 18.1429 11.5809C17.933 11.6693 17.7784 11.8625 17.7397 12.0835C17.6237 12.7462 17.436 13.3426 17.193 13.8507C17.1488 13.9446 17.1267 14.044 17.1267 14.1434V16.2199C17.1267 16.5678 17.32 16.8715 17.6293 17.0262C18.187 17.2968 21.1085 18.7713 23.9747 20.9914C24.7921 21.6265 25.2781 22.6316 25.2781 23.6809V25.1168C25.2781 25.404 25.0406 25.6414 24.7534 25.6414H2.74585C2.45315 25.647 2.21568 25.4095 2.21568 25.1168Z"/>
</mask>
<path d="M26.6311 25.1168V23.6809C26.6311 22.2174 25.9463 20.8092 24.8031 19.92C22.1412 17.8546 19.4296 16.4132 18.4797 15.9327V14.2925C18.673 13.8617 18.8332 13.3923 18.9547 12.8842C19.6616 12.6302 20.0482 11.5919 20.3077 10.6752C20.6556 9.45469 20.617 8.59869 20.2083 8.12375C20.6391 5.77664 20.4458 4.04807 19.6395 2.9822C19.2142 2.42442 18.7172 2.18695 18.3859 2.08202C18.1484 1.75066 17.6679 1.19288 16.8561 0.745551C16.0167 0.248517 15.0723 0 14.034 0C13.8463 0 13.6585 0.0110452 13.4928 0.0220904C13.0289 0.0441808 12.5706 0.132542 12.1177 0.281653C12.1122 0.281653 12.1067 0.287175 12.1011 0.287175C11.6041 0.458376 11.1181 0.706893 10.6487 1.0272C10.113 1.36961 9.62149 1.77828 9.19625 2.23113C8.36233 3.08713 7.81007 4.05359 7.5726 5.08632C7.34618 5.94232 7.32961 6.80385 7.51738 7.6488C7.41797 7.7206 7.32961 7.80344 7.25229 7.90284C6.87123 8.4054 6.85466 9.19513 7.19154 10.3935C7.42349 11.2219 7.73276 12.0669 8.25741 12.4479C8.41204 13.2432 8.6716 13.9667 9.01952 14.6073V15.9382C8.06964 16.4187 5.35804 17.8546 2.69615 19.9255C1.55297 20.8147 0.868164 22.2174 0.868164 23.6864V25.1223C0.868164 26.1606 1.71312 27 2.74585 27H24.7534C25.7861 27 26.6311 26.155 26.6311 25.1168ZM2.21568 25.1168V23.6809C2.21568 22.6316 2.70167 21.6265 3.51901 20.9914C6.39077 18.7658 9.31222 17.2968 9.87 17.0262C10.1793 16.8771 10.3726 16.5678 10.3726 16.2199V14.425C10.3726 14.3035 10.3394 14.1876 10.2787 14.0826C9.91419 13.4641 9.66015 12.7241 9.53313 11.8791C9.48895 11.6085 9.29013 11.3931 9.03057 11.3269C8.95878 11.244 8.75444 10.9458 8.49488 10.0235C8.2795 9.2614 8.29606 8.90796 8.31815 8.78094C8.53354 8.79198 8.74892 8.69258 8.88698 8.52137C9.03057 8.33913 9.06923 8.09613 8.99191 7.88075C8.70474 7.07998 8.6716 6.25711 8.8925 5.41767C9.08027 4.61137 9.51104 3.8603 10.1793 3.1755C10.5382 2.78891 10.9524 2.45204 11.3942 2.17038C11.3998 2.16486 11.4108 2.15934 11.4163 2.15381C11.7863 1.89425 12.1729 1.70096 12.554 1.56842C12.5595 1.56842 12.565 1.5629 12.565 1.5629C12.8909 1.45244 13.2277 1.3917 13.5812 1.37513C14.5476 1.29229 15.4147 1.47453 16.1823 1.92187C17.0218 2.38576 17.3642 2.99325 17.3642 2.99325C17.4691 3.20863 17.6569 3.33565 17.8999 3.35222C17.9164 3.35222 18.2754 3.40745 18.5847 3.84373C18.9105 4.30763 19.3744 5.50051 18.7945 8.2839C18.7283 8.59317 18.8884 8.90243 19.1701 9.03498C19.1977 9.13438 19.2419 9.47126 19.0044 10.3107C18.7945 11.0507 18.6233 11.3876 18.5239 11.5367C18.3969 11.5146 18.2644 11.5257 18.1429 11.5809C17.933 11.6693 17.7784 11.8625 17.7397 12.0835C17.6237 12.7462 17.436 13.3426 17.193 13.8507C17.1488 13.9446 17.1267 14.044 17.1267 14.1434V16.2199C17.1267 16.5678 17.32 16.8715 17.6293 17.0262C18.187 17.2968 21.1085 18.7713 23.9747 20.9914C24.7921 21.6265 25.2781 22.6316 25.2781 23.6809V25.1168C25.2781 25.404 25.0406 25.6414 24.7534 25.6414H2.74585C2.45315 25.647 2.21568 25.4095 2.21568 25.1168Z" fill="white"/>
<path d="M24.8031 19.92L89.2669 -62.962L89.2192 -62.999L89.1715 -63.036L24.8031 19.92ZM18.4797 15.9327H-86.5203V80.4901L-28.913 109.629L18.4797 15.9327ZM18.4797 14.2925L-77.3179 -28.6936L-86.5203 -8.18558V14.2925H18.4797ZM18.9547 12.8842L-16.5562 -85.9286L-69.9665 -66.7343L-83.1661 -11.536L18.9547 12.8842ZM20.3077 10.6752L-80.6695 -18.1102L-80.6953 -18.0198L-80.7209 -17.9293L20.3077 10.6752ZM20.2083 8.12375L-83.0668 -10.8303L-92.1298 38.5518L-59.3828 76.6091L20.2083 8.12375ZM19.6395 2.9822L103.378 -60.3644L103.26 -60.521L103.141 -60.6772L19.6395 2.9822ZM18.3859 2.08202L-66.9599 63.2465L-46.6127 91.638L-13.3128 102.183L18.3859 2.08202ZM16.8561 0.745551L-36.6406 91.0955L-35.2415 91.9239L-33.8174 92.7086L16.8561 0.745551ZM13.4928 0.0220904L18.4872 104.903L19.4828 104.856L20.4773 104.79L13.4928 0.0220904ZM12.1177 0.281653V105.282H28.9595L44.9565 100.014L12.1177 0.281653ZM12.1011 0.287175V-104.713H-5.47547L-22.0939 -98.9887L12.1011 0.287175ZM10.6487 1.0272L67.1976 89.4988L68.5272 88.6489L69.8307 87.7595L10.6487 1.0272ZM9.19625 2.23113L84.4066 75.5005L85.0794 74.8099L85.7394 74.107L9.19625 2.23113ZM7.5726 5.08632L109.081 31.937L109.519 30.2835L109.902 28.6166L7.5726 5.08632ZM7.51738 7.6488L68.9939 92.7701L125.005 52.3176L110.017 -15.1289L7.51738 7.6488ZM7.25229 7.90284L-75.6297 -56.5609L-76.0258 -56.0517L-76.4156 -55.5376L7.25229 7.90284ZM7.19154 10.3935L108.303 -17.9176L108.288 -17.9694L108.274 -18.0213L7.19154 10.3935ZM8.25741 12.4479L111.327 -7.59337L103.432 -48.1987L69.9622 -72.508L8.25741 12.4479ZM9.01952 14.6073H114.02V-12.0657L101.29 -35.5049L9.01952 14.6073ZM9.01952 15.9382L56.4122 109.634L114.02 80.4956V15.9382H9.01952ZM2.69615 19.9255L67.1599 102.808L67.1659 102.803L67.1718 102.798L2.69615 19.9255ZM3.51901 20.9914L-60.801 -62.0022L-60.8535 -61.9615L-60.906 -61.9207L3.51901 20.9914ZM9.87 17.0262L-35.7314 -77.5545L-35.8466 -77.499L-35.9617 -77.4432L9.87 17.0262ZM10.2787 14.0826L101.148 -38.5262L100.946 -38.8764L100.74 -39.2251L10.2787 14.0826ZM9.53313 11.8791L113.366 -3.72982L113.268 -4.38542L113.161 -5.03973L9.53313 11.8791ZM9.03057 11.3269L-70.3168 80.0946L-48.7907 104.932L-16.9447 113.063L9.03057 11.3269ZM8.49488 10.0235L109.568 -18.4223L109.553 -18.4771L109.537 -18.532L8.49488 10.0235ZM8.31815 8.78094L13.6957 -96.0813L-79.1926 -100.845L-95.1291 -9.20989L8.31815 8.78094ZM8.88698 8.52137L90.6203 74.4354L90.9946 73.9713L91.3636 73.503L8.88698 8.52137ZM8.99191 7.88075L-89.8446 43.3256L-89.8391 43.3411L-89.8335 43.3566L8.99191 7.88075ZM8.8925 5.41767L110.435 32.1395L110.816 30.6911L111.156 29.2325L8.8925 5.41767ZM10.1793 3.1755L85.329 76.5071L86.2375 75.5761L87.1226 74.6229L10.1793 3.1755ZM11.3942 2.17038L67.8378 90.7092L77.5207 84.5364L85.6405 76.4166L11.3942 2.17038ZM11.4163 2.15381L-48.8833 -83.8052L-56.3664 -78.5559L-62.8299 -72.0924L11.4163 2.15381ZM12.554 1.56842V-103.432H-5.18565L-21.9407 -97.6037L12.554 1.56842ZM12.565 1.5629L-21.1441 -97.879L-44.3537 -90.0113L-61.6825 -72.682L12.565 1.5629ZM13.5812 1.37513L18.4977 106.26L20.5256 106.165L22.5483 105.992L13.5812 1.37513ZM16.1823 1.92187L-36.6835 92.6423L-35.6508 93.2441L-34.6047 93.8222L16.1823 1.92187ZM17.3642 2.99325L111.758 -42.9935L110.38 -45.8221L108.835 -48.5631L17.3642 2.99325ZM17.8999 3.35222L10.7574 108.109L14.3245 108.352H17.8999V3.35222ZM18.5847 3.84373L104.508 -56.507L104.377 -56.6929L104.246 -56.8782L18.5847 3.84373ZM18.7945 8.2839L121.464 30.2845L121.526 29.992L121.587 29.6991L18.7945 8.2839ZM19.1701 9.03498L120.339 -19.0676L107.451 -65.4665L63.8788 -85.971L19.1701 9.03498ZM19.0044 10.3107L120.021 38.9572L120.03 38.9251L120.039 38.8929L19.0044 10.3107ZM18.5239 11.5367L0.533097 114.984L67.9383 126.707L105.889 69.7802L18.5239 11.5367ZM18.1429 11.5809L58.8888 108.353L60.2488 107.78L61.5922 107.169L18.1429 11.5809ZM17.7397 12.0835L-85.6885 -6.01648L17.7397 12.0835ZM17.193 13.8507L-77.5311 -31.4521L-77.673 -31.1555L-77.813 -30.858L17.193 13.8507ZM17.6293 17.0262L-29.3282 110.941L-28.7669 111.222L-28.2024 111.496L17.6293 17.0262ZM23.9747 20.9914L88.3997 -61.9207L88.336 -61.9702L88.2723 -62.0196L23.9747 20.9914ZM2.74585 25.6414V-79.3586H1.75537L0.765069 -79.3399L2.74585 25.6414ZM131.631 25.1168V23.6809H-78.3689V25.1168H131.631ZM131.631 23.6809C131.631 -9.8094 116.281 -41.9507 89.2669 -62.962L-39.6606 102.802C-64.3887 83.569 -78.3689 54.2443 -78.3689 23.6809H131.631ZM89.1715 -63.036C78.9541 -70.9641 69.5729 -75.8915 65.8725 -77.7632L-28.913 109.629C-30.1892 108.983 -31.5762 108.238 -33.0793 107.335C-34.4909 106.487 -36.7828 105.035 -39.5653 102.876L89.1715 -63.036ZM123.48 15.9327V14.2925H-86.5203V15.9327H123.48ZM114.277 57.2786C117.273 50.6038 119.5 43.8947 121.075 37.3044L-83.1661 -11.536C-81.8332 -17.1101 -79.9264 -22.8804 -77.3179 -28.6936L114.277 57.2786ZM54.4655 111.697C91.5421 98.3727 107.872 69.9779 112.354 61.6115C118.087 50.9114 120.696 41.5413 121.336 39.2797L-80.7209 -17.9293C-80.3401 -19.2741 -78.0537 -27.6667 -72.7564 -37.555C-68.7093 -45.1096 -52.9259 -72.8583 -16.5562 -85.9286L54.4655 111.697ZM121.285 39.4606C123.227 32.6496 126.083 20.3408 125.456 4.86885C124.817 -10.9015 120.112 -36.7554 99.7995 -60.3617L-59.3828 76.6091C-79.2865 53.4778 -83.7677 28.2895 -84.3722 13.3709C-84.9646 -1.24919 -82.2632 -12.5197 -80.6695 -18.1102L121.285 39.4606ZM123.483 27.0778C125.382 16.7322 131.658 -22.9816 103.378 -60.3644L-64.0995 66.3288C-78.004 47.9481 -82.584 29.1623 -83.972 16.6494C-85.3376 4.33908 -84.0631 -5.40186 -83.0668 -10.8303L123.483 27.0778ZM103.141 -60.6772C86.5269 -82.4695 65.5751 -93.1135 50.0845 -98.0189L-13.3128 102.183C-28.1407 97.4874 -48.0985 87.3183 -63.8619 66.6416L103.141 -60.6772ZM103.732 -59.0825C96.9948 -68.4828 85.5062 -81.312 67.5296 -91.2175L-33.8174 92.7086C-50.1704 83.6978 -60.698 71.9841 -66.9599 63.2465L103.732 -59.0825ZM70.3528 -89.6044C52.1806 -100.364 32.5297 -105 14.034 -105V105C-2.38511 105 -20.1472 100.861 -36.6406 91.0955L70.3528 -89.6044ZM14.034 -105C10.1258 -105 6.99306 -104.778 6.50834 -104.745L20.4773 104.79C20.2986 104.801 19.5303 104.853 18.523 104.899C17.5064 104.945 15.9476 105 14.034 105V-105ZM8.49849 -104.859C-2.08782 -104.355 -11.9026 -102.355 -20.7211 -99.4511L44.9565 100.014C37.0437 102.62 28.1457 104.443 18.4872 104.903L8.49849 -104.859ZM12.1177 -104.718C9.92923 -104.718 7.81171 -104.65 5.77134 -104.526C3.73147 -104.403 1.77092 -104.224 -0.104551 -104.005C-1.97962 -103.785 -3.77116 -103.524 -5.47385 -103.234C-6.3254 -103.09 -7.15552 -102.938 -7.96358 -102.78C-8.77162 -102.623 -9.55833 -102.46 -10.3231 -102.292C-11.0878 -102.125 -11.8315 -101.954 -12.5534 -101.779C-13.2753 -101.605 -13.9765 -101.427 -14.6563 -101.248C-15.3361 -101.069 -15.9955 -100.887 -16.6341 -100.706C-17.2726 -100.524 -17.8913 -100.341 -18.4896 -100.159C-19.0879 -99.9765 -19.6669 -99.7942 -20.2261 -99.6132C-20.7853 -99.4322 -21.3257 -99.252 -21.8469 -99.0738C-22.3681 -98.8957 -22.8712 -98.7191 -23.3557 -98.5453C-23.8401 -98.3714 -24.307 -98.1998 -24.7558 -98.0315C-25.2047 -97.8632 -25.6367 -97.6977 -26.0511 -97.536C-26.4655 -97.3743 -26.8637 -97.2159 -27.2449 -97.0618C-27.6261 -96.9076 -27.9917 -96.7573 -28.3407 -96.6115C-28.6898 -96.4658 -29.0237 -96.3241 -29.3417 -96.1875C-29.6597 -96.0508 -29.9631 -95.9186 -30.251 -95.7917C-30.5389 -95.6647 -30.8127 -95.5424 -31.0715 -95.4257C-31.3302 -95.309 -31.5753 -95.1971 -31.8057 -95.091C-32.0361 -94.9849 -32.2533 -94.8839 -32.4561 -94.7888C-32.6589 -94.6937 -32.849 -94.6039 -33.0249 -94.5201C-33.2008 -94.4364 -33.3643 -94.3579 -33.514 -94.2857C-33.6636 -94.2135 -33.8012 -94.1467 -33.925 -94.0863C-34.0488 -94.0259 -34.161 -93.9709 -34.2595 -93.9224C-34.3578 -93.874 -34.445 -93.8309 -34.5184 -93.7945C-34.5916 -93.7582 -34.6543 -93.727 -34.7028 -93.7029C-34.7273 -93.6907 -34.749 -93.6799 -34.7673 -93.6708C-34.7855 -93.6617 -34.8012 -93.6538 -34.8133 -93.6478C-34.8253 -93.6418 -34.8351 -93.6369 -34.841 -93.634C-34.844 -93.6325 -34.8464 -93.6312 -34.8479 -93.6305C-34.8485 -93.6302 -34.8494 -93.6298 -34.8497 -93.6296C-34.85 -93.6295 -34.8503 -93.6293 -34.8503 -93.6293C-34.8505 -93.6292 -34.8494 -93.6298 -34.848 -93.6304C-34.8466 -93.6311 -34.8442 -93.6323 -34.8412 -93.6338C-34.8354 -93.6367 -34.8258 -93.6416 -34.8138 -93.6475C-34.8018 -93.6535 -34.7862 -93.6613 -34.768 -93.6704C-34.7498 -93.6795 -34.7282 -93.6902 -34.7039 -93.7024C-34.6555 -93.7264 -34.593 -93.7575 -34.52 -93.7937C-34.4468 -93.83 -34.3597 -93.8731 -34.2615 -93.9214C-34.1632 -93.9698 -34.0513 -94.0247 -33.9276 -94.085C-33.8039 -94.1453 -33.6665 -94.2121 -33.5171 -94.2842C-33.3676 -94.3563 -33.2043 -94.4346 -33.0285 -94.5183C-32.8528 -94.602 -32.6629 -94.6918 -32.4603 -94.7868C-32.2576 -94.8818 -32.0406 -94.9827 -31.8104 -95.0888C-31.5801 -95.1948 -31.3352 -95.3065 -31.0767 -95.4232C-30.8181 -95.5399 -30.5445 -95.6621 -30.2567 -95.7889C-29.969 -95.9158 -29.6658 -96.048 -29.348 -96.1845C-29.0301 -96.3211 -28.6964 -96.4627 -28.3475 -96.6083C-27.9986 -96.754 -27.6332 -96.9043 -27.2522 -97.0584C-26.8711 -97.2124 -26.4731 -97.3708 -26.0589 -97.5324C-25.6446 -97.694 -25.2128 -97.8595 -24.7641 -98.0277C-24.3155 -98.196 -23.8487 -98.3675 -23.3645 -98.5413C-22.8802 -98.7151 -22.3773 -98.8916 -21.8563 -99.0697C-21.3352 -99.2478 -20.7949 -99.4279 -20.2359 -99.6088C-19.6769 -99.7898 -19.0981 -99.972 -18.5 -100.154C-17.9018 -100.337 -17.2833 -100.519 -16.6449 -100.701C-16.0066 -100.883 -15.3473 -101.064 -14.6677 -101.243C-13.988 -101.422 -13.287 -101.6 -12.5653 -101.774C-11.8436 -101.949 -11.1001 -102.12 -10.3355 -102.287C-9.57093 -102.455 -8.78439 -102.618 -7.97652 -102.775C-7.16863 -102.933 -6.33868 -103.084 -5.48732 -103.229C-3.78497 -103.518 -1.99377 -103.78 -0.119047 -103.999C1.75608 -104.219 3.71628 -104.397 5.75581 -104.521C7.79583 -104.644 9.91301 -104.713 12.1011 -104.713V105.287C14.2896 105.287 16.4071 105.219 18.4475 105.095C20.4874 104.972 22.4479 104.793 24.3234 104.573C26.1985 104.354 27.99 104.093 29.6927 103.803C30.5442 103.658 31.3744 103.507 32.1824 103.349C32.9905 103.192 33.7772 103.029 34.5419 102.861C35.3067 102.694 36.0503 102.522 36.7722 102.348C37.4942 102.173 38.1953 101.996 38.8751 101.817C39.5549 101.637 40.2144 101.456 40.8529 101.274C41.4914 101.093 42.1102 100.91 42.7085 100.728C43.3067 100.545 43.8858 100.363 44.4449 100.182C45.0041 100.001 45.5446 99.8208 46.0658 99.6427C46.587 99.4645 47.0901 99.288 47.5745 99.1141C48.0589 98.9403 48.5259 98.7687 48.9747 98.6003C49.4235 98.432 49.8555 98.2665 50.2699 98.1048C50.6844 97.9431 51.0826 97.7847 51.4638 97.6306C51.845 97.4765 52.2105 97.3261 52.5596 97.1803C52.9086 97.0346 53.2426 96.893 53.5606 96.7563C53.8786 96.6197 54.182 96.4874 54.4699 96.3605C54.7578 96.2335 55.0316 96.1113 55.2903 95.9945C55.549 95.8778 55.7941 95.7659 56.0245 95.6599C56.2549 95.5538 56.4721 95.4527 56.675 95.3577C56.8778 95.2626 57.0678 95.1727 57.2438 95.0889C57.4197 95.0052 57.5832 94.9267 57.7328 94.8545C57.8824 94.7824 58.02 94.7155 58.1439 94.6551C58.2677 94.5947 58.3798 94.5397 58.4783 94.4913C58.5767 94.4428 58.6639 94.3997 58.7373 94.3633C58.8105 94.3271 58.8732 94.2959 58.9217 94.2717C58.9461 94.2595 58.9678 94.2487 58.9861 94.2396C59.0044 94.2305 59.02 94.2227 59.0321 94.2166C59.0442 94.2106 59.0539 94.2057 59.0598 94.2028C59.0628 94.2013 59.0653 94.2001 59.0667 94.1993C59.0673 94.199 59.0682 94.1986 59.0685 94.1984C59.0688 94.1983 59.0691 94.1981 59.0691 94.1981C59.0693 94.198 59.0682 94.1986 59.0669 94.1993C59.0654 94.2 59.063 94.2012 59.0601 94.2027C59.0542 94.2056 59.0446 94.2104 59.0327 94.2164C59.0206 94.2224 59.0051 94.2301 58.9869 94.2392C58.9687 94.2483 58.9471 94.2591 58.9227 94.2712C58.8744 94.2953 58.8119 94.3264 58.7388 94.3626C58.6656 94.3989 58.5786 94.4419 58.4804 94.4902C58.3821 94.5386 58.2701 94.5935 58.1465 94.6538C58.0228 94.7142 57.8854 94.7809 57.7359 94.853C57.5865 94.9251 57.4231 95.0035 57.2474 95.0872C57.0716 95.1708 56.8818 95.2606 56.6791 95.3556C56.4764 95.4506 56.2594 95.5516 56.0292 95.6576C55.799 95.7636 55.5541 95.8754 55.2955 95.992C55.0369 96.1087 54.7633 96.2309 54.4756 96.3578C54.1878 96.4846 53.8846 96.6168 53.5668 96.7534C53.249 96.8899 52.9152 97.0315 52.5663 97.1772C52.2174 97.3228 51.8521 97.4731 51.471 97.6272C51.09 97.7813 50.692 97.9396 50.2777 98.1012C49.8634 98.2628 49.4316 98.4283 48.983 98.5965C48.5343 98.7648 48.0675 98.9363 47.5833 99.1101C47.0991 99.2839 46.5961 99.4604 46.0751 99.6385C45.5541 99.8166 45.0138 99.9967 44.4548 100.178C43.8958 100.359 43.3169 100.541 42.7188 100.723C42.1207 100.905 41.5021 101.088 40.8638 101.27C40.2254 101.451 39.5661 101.633 38.8865 101.812C38.2069 101.991 37.5059 102.169 36.7841 102.343C36.0624 102.517 35.3189 102.689 34.5544 102.856C33.7898 103.024 33.0032 103.187 32.1954 103.344C31.3875 103.501 30.5575 103.653 29.7062 103.798C28.0038 104.087 26.2126 104.348 24.3379 104.568C22.4628 104.788 20.5026 104.966 18.463 105.09C16.423 105.213 14.3058 105.282 12.1177 105.282V-104.718ZM-22.0939 -98.9887C-32.2689 -95.484 -41.0888 -90.7849 -48.5333 -85.7051L69.8307 87.7595C63.3251 92.1986 55.4771 96.4007 46.2962 99.5631L-22.0939 -98.9887ZM-45.9002 -87.4444C-53.7284 -82.4408 -60.9425 -76.4651 -67.3469 -69.6448L85.7394 74.107C80.1855 80.0216 73.9544 85.18 67.1976 89.4988L-45.9002 -87.4444ZM-66.0141 -71.0383C-78.3445 -58.3812 -89.6274 -40.7515 -94.7569 -18.444L109.902 28.6166C105.248 48.8587 95.0691 64.5555 84.4066 75.5005L-66.0141 -71.0383ZM-93.9362 -21.7644C-98.4176 -4.82245 -98.8422 13.0566 -94.9823 30.4265L110.017 -15.1289C113.501 0.551077 113.11 16.7071 109.081 31.937L-93.9362 -21.7644ZM-53.9591 -77.4725C-61.4098 -72.0915 -68.9058 -65.206 -75.6297 -56.5609L90.1343 72.3666C83.565 80.8128 76.2457 87.5327 68.9939 92.7701L-53.9591 -77.4725ZM-76.4156 -55.5376C-109.525 -11.8712 -95.0878 34.5494 -93.8906 38.8083L108.274 -18.0213C109.543 -13.5065 112.257 -2.77676 111.924 11.3613C111.56 26.7669 107.391 49.6208 90.9201 71.3433L-76.4156 -55.5376ZM-93.9197 38.7047C-93.2701 41.0245 -91.2471 48.1685 -87.2557 56.5842C-83.8634 63.7365 -74.3136 82.2485 -53.4474 97.4039L69.9622 -72.508C90.3038 -57.7336 99.4366 -39.8347 102.485 -33.4072C106.133 -25.7164 107.885 -19.4091 108.303 -17.9176L-93.9197 38.7047ZM-94.8122 32.4893C-92.7278 43.209 -88.991 54.1497 -83.2506 64.7195L101.29 -35.5049C106.334 -26.2164 109.552 -16.7226 111.327 -7.59337L-94.8122 32.4893ZM-95.9805 14.6073V15.9382H114.02V14.6073H-95.9805ZM-38.3732 -77.7577C-41.9451 -75.951 -51.4397 -70.9917 -61.7795 -62.9472L67.1718 102.798C64.3304 105.009 61.9838 106.495 60.5381 107.363C58.9897 108.292 57.5976 109.035 56.4122 109.634L-38.3732 -77.7577ZM-61.7676 -62.9564C-88.7306 -41.9852 -104.132 -9.87516 -104.132 23.6864H105.868C105.868 54.31 91.8366 83.6146 67.1599 102.808L-61.7676 -62.9564ZM-104.132 23.6864V25.1223H105.868V23.6864H-104.132ZM-104.132 25.1223C-104.132 84.3514 -56.0757 132 2.74585 132V-78C59.5019 -78 105.868 -32.0302 105.868 25.1223H-104.132ZM2.74585 132H24.7534V-78H2.74585V132ZM24.7534 132C83.9766 132 131.631 83.9442 131.631 25.1168H-78.3689C-78.3689 -31.6341 -32.4043 -78 24.7534 -78V132ZM107.216 25.1168V23.6809H-102.784V25.1168H107.216ZM107.216 23.6809C107.216 54.4096 93.2283 84.2569 67.944 103.904L-60.906 -61.9207C-87.825 -41.0039 -102.784 -9.14632 -102.784 23.6809H107.216ZM67.839 103.985C64.7291 106.395 62.1711 107.975 60.6531 108.865C59.0427 109.808 57.435 110.655 55.7017 111.496L-35.9617 -77.4432C-39.4555 -75.7481 -49.6999 -70.6055 -60.801 -62.0022L67.839 103.985ZM55.4714 111.607C92.5501 93.7296 115.373 56.3769 115.373 16.2199H-94.6274C-94.6274 -23.2413 -72.1916 -59.9755 -35.7314 -77.5545L55.4714 111.607ZM115.373 16.2199V14.425H-94.6274V16.2199H115.373ZM115.373 14.425C115.373 -5.30244 109.881 -23.4424 101.148 -38.5262L-80.5911 66.6914C-89.2023 51.8175 -94.6274 33.9095 -94.6274 14.425H115.373ZM100.74 -39.2251C108.15 -26.6507 111.789 -14.2236 113.366 -3.72982L-94.3002 27.488C-92.4687 39.6718 -88.3217 53.5789 -80.1829 67.3903L100.74 -39.2251ZM113.161 -5.03973C106.419 -46.3368 75.8707 -79.9759 35.0058 -90.4095L-16.9447 113.063C-57.2905 102.762 -87.4408 69.5538 -94.0948 28.798L113.161 -5.03973ZM88.3779 -57.4408C96.5937 -47.9611 101.439 -38.9194 104.15 -33.0528C106.963 -26.9642 108.62 -21.7908 109.568 -18.4223L-92.5785 38.4693C-90.8434 44.6347 -85.4805 62.598 -70.3168 80.0946L88.3779 -57.4408ZM109.537 -18.532C110.73 -14.312 112.077 -8.45335 112.793 -1.31959C113.494 5.6699 113.744 15.3969 111.765 26.7718L-95.1291 -9.20989C-98.9103 12.5322 -94.9517 30.0721 -92.5476 38.579L109.537 -18.532ZM2.94061 113.643C38.1297 115.448 70.2407 99.7061 90.6203 74.4354L-72.8464 -57.3926C-52.7429 -82.321 -21.0626 -97.8637 13.6957 -96.0813L2.94061 113.643ZM91.3636 73.503C113.93 44.861 120.111 6.65017 107.817 -27.595L-89.8335 43.3566C-101.972 9.5421 -95.8689 -28.1828 -73.5896 -56.4602L91.3636 73.503ZM107.828 -27.5641C114.861 -7.95409 115.495 12.9139 110.435 32.1395L-92.6503 -21.3041C-98.1515 -0.399665 -97.4515 22.114 -89.8446 43.3256L107.828 -27.5641ZM111.156 29.2325C106.361 49.8214 95.9516 65.6211 85.329 76.5071L-64.9704 -70.1561C-76.9295 -57.9005 -88.2009 -40.5987 -93.3711 -18.3972L111.156 29.2325ZM87.1226 74.6229C80.8464 81.3819 74.2057 86.6496 67.8378 90.7092L-45.0493 -86.3685C-52.3009 -81.7456 -59.7699 -75.804 -66.764 -68.2719L87.1226 74.6229ZM85.6405 76.4166C85.2541 76.803 84.8761 77.1749 84.5077 77.5323C84.1393 77.8897 83.7792 78.2339 83.4284 78.5646C83.0776 78.8954 82.7349 79.214 82.4012 79.5202C82.0676 79.8265 81.7419 80.1215 81.425 80.4052C81.1081 80.6889 80.7989 80.9621 80.4983 81.2249C80.1976 81.4878 79.9044 81.741 79.6195 81.9845C79.3346 82.228 79.057 82.4627 78.7873 82.6884C78.5177 82.9141 78.2551 83.1316 78.0002 83.3407C77.7453 83.5499 77.4972 83.7514 77.2566 83.9452C77.0159 84.139 76.782 84.3257 76.5551 84.5052C76.3283 84.6847 76.1079 84.8576 75.8944 85.0237C75.681 85.1899 75.4737 85.3499 75.2732 85.5036C75.0726 85.6573 74.8781 85.8053 74.6901 85.9473C74.502 86.0894 74.3198 86.226 74.1439 86.3572C73.7926 86.6189 73.4628 86.8613 73.1578 87.0831C72.8528 87.305 72.568 87.5096 72.3067 87.6956C72.0454 87.8817 71.8032 88.0524 71.5833 88.2062C71.3634 88.36 71.1617 88.4999 70.9814 88.6241C70.8012 88.7483 70.6381 88.8598 70.4959 88.9567C70.3538 89.0534 70.2279 89.1386 70.1227 89.2096C70.0697 89.2453 70.021 89.2781 69.9771 89.3076C69.9332 89.3371 69.8935 89.3638 69.8585 89.3872C69.8236 89.4106 69.7927 89.4313 69.7666 89.4487C69.7406 89.4661 69.7184 89.4809 69.7012 89.4924C69.6842 89.5038 69.6705 89.5129 69.6622 89.5184C69.658 89.5213 69.6546 89.5235 69.6526 89.5249C69.6507 89.5261 69.6491 89.5272 69.6495 89.5269C69.6495 89.5269 69.6496 89.5268 69.6497 89.5268C69.6498 89.5267 69.6502 89.5265 69.6504 89.5263C69.6509 89.526 69.6518 89.5254 69.653 89.5246C69.6551 89.5232 69.6586 89.5208 69.663 89.5179C69.6715 89.5122 69.6855 89.5029 69.7028 89.4914C69.7202 89.4797 69.7427 89.4647 69.769 89.4472C69.7953 89.4296 69.8265 89.4087 69.8616 89.3851C69.8968 89.3615 69.9369 89.3347 69.981 89.305C70.0251 89.2753 70.0741 89.2424 70.1273 89.2065C70.2331 89.1351 70.3595 89.0496 70.5021 88.9525C70.6448 88.8554 70.8083 88.7435 70.9891 88.6189C71.1699 88.4943 71.3721 88.3541 71.5925 88.2C71.8128 88.0459 72.0555 87.8748 72.3174 87.6884C72.5792 87.502 72.8644 87.297 73.1699 87.0748C73.4754 86.8527 73.8056 86.61 74.1574 86.3478C74.3335 86.2166 74.516 86.0797 74.7042 85.9375C74.8925 85.7953 75.0873 85.6471 75.288 85.4933C75.4888 85.3394 75.6963 85.1792 75.91 85.0128C76.1237 84.8465 76.3443 84.6734 76.5713 84.4938C76.7984 84.3141 77.0326 84.1272 77.2734 83.9333C77.5143 83.7393 77.7625 83.5376 78.0176 83.3283C78.2727 83.119 78.5356 82.9013 78.8054 82.6754C79.0753 82.4496 79.3531 82.2148 79.6382 81.971C79.9233 81.7273 80.2167 81.4739 80.5176 81.211C80.8184 80.948 81.1278 80.6745 81.4449 80.3907C81.762 80.1069 82.0879 79.8117 82.4217 79.5052C82.7555 79.1988 83.0984 78.8801 83.4494 78.5491C83.8004 78.2182 84.1607 77.8739 84.5293 77.5163C84.8979 77.1587 85.276 76.7866 85.6625 76.4L-62.8299 -72.0924C-62.4435 -72.4788 -62.0655 -72.8507 -61.6971 -73.2081C-61.3287 -73.5655 -60.9686 -73.9097 -60.6178 -74.2404C-60.267 -74.5712 -59.9243 -74.8898 -59.5907 -75.196C-59.257 -75.5023 -58.9313 -75.7973 -58.6144 -76.081C-58.2975 -76.3647 -57.9883 -76.6379 -57.6877 -76.9007C-57.387 -77.1636 -57.0939 -77.4168 -56.809 -77.6603C-56.524 -77.9038 -56.2464 -78.1385 -55.9767 -78.3642C-55.7071 -78.5899 -55.4445 -78.8074 -55.1896 -79.0165C-54.9347 -79.2257 -54.6866 -79.4272 -54.446 -79.621C-54.2054 -79.8148 -53.9714 -80.0015 -53.7446 -80.181C-53.5177 -80.3605 -53.2973 -80.5334 -53.0839 -80.6995C-52.8704 -80.8657 -52.6631 -81.0257 -52.4626 -81.1794C-52.262 -81.3331 -52.0675 -81.4811 -51.8795 -81.6231C-51.6914 -81.7652 -51.5092 -81.9018 -51.3333 -82.033C-50.982 -82.2947 -50.6522 -82.5371 -50.3473 -82.7589C-50.0422 -82.9808 -49.7575 -83.1854 -49.4961 -83.3714C-49.2348 -83.5575 -48.9926 -83.7282 -48.7727 -83.882C-48.5529 -84.0358 -48.3511 -84.1757 -48.1708 -84.2999C-47.9906 -84.4241 -47.8275 -84.5356 -47.6853 -84.6325C-47.5432 -84.7292 -47.4174 -84.8144 -47.3121 -84.8854C-47.2592 -84.9211 -47.2104 -84.9539 -47.1665 -84.9834C-47.1227 -85.0129 -47.0829 -85.0396 -47.0479 -85.063C-47.013 -85.0864 -46.9821 -85.1071 -46.9561 -85.1245C-46.9301 -85.1419 -46.9078 -85.1567 -46.8907 -85.1682C-46.8736 -85.1796 -46.8599 -85.1887 -46.8516 -85.1942C-46.8474 -85.1971 -46.844 -85.1993 -46.842 -85.2007C-46.8401 -85.2019 -46.8386 -85.203 -46.8389 -85.2027C-46.8389 -85.2027 -46.839 -85.2026 -46.8392 -85.2026C-46.8393 -85.2025 -46.8396 -85.2023 -46.8398 -85.2021C-46.8404 -85.2018 -46.8413 -85.2012 -46.8424 -85.2004C-46.8445 -85.199 -46.8481 -85.1966 -46.8524 -85.1937C-46.8609 -85.188 -46.8749 -85.1787 -46.8922 -85.1672C-46.9096 -85.1555 -46.9321 -85.1405 -46.9584 -85.123C-46.9847 -85.1054 -47.0159 -85.0845 -47.051 -85.0609C-47.0862 -85.0374 -47.1263 -85.0105 -47.1704 -84.9808C-47.2146 -84.9511 -47.2635 -84.9182 -47.3167 -84.8823C-47.4225 -84.8109 -47.5489 -84.7254 -47.6915 -84.6283C-47.8342 -84.5312 -47.9978 -84.4193 -48.1785 -84.2947C-48.3593 -84.1701 -48.5615 -84.0299 -48.7819 -83.8758C-49.0023 -83.7217 -49.245 -83.5506 -49.5068 -83.3642C-49.7686 -83.1778 -50.0539 -82.9728 -50.3593 -82.7506C-50.6648 -82.5285 -50.9951 -82.2858 -51.3468 -82.0236C-51.5229 -81.8924 -51.7054 -81.7555 -51.8937 -81.6133C-52.0819 -81.4711 -52.2767 -81.3229 -52.4775 -81.1691C-52.6782 -81.0152 -52.8857 -80.855 -53.0994 -80.6887C-53.3131 -80.5223 -53.5337 -80.3492 -53.7607 -80.1696C-53.9878 -79.9899 -54.222 -79.803 -54.4628 -79.6091C-54.7037 -79.4151 -54.9519 -79.2134 -55.2071 -79.0041C-55.4622 -78.7948 -55.725 -78.5771 -55.9948 -78.3513C-56.2647 -78.1254 -56.5425 -77.8906 -56.8277 -77.6468C-57.1128 -77.4031 -57.4061 -77.1497 -57.707 -76.8868C-58.0078 -76.6238 -58.3172 -76.3503 -58.6343 -76.0665C-58.9514 -75.7827 -59.2773 -75.4875 -59.6111 -75.181C-59.9449 -74.8746 -60.2878 -74.5559 -60.6388 -74.2249C-60.9898 -73.894 -61.3501 -73.5497 -61.7187 -73.1921C-62.0873 -72.8345 -62.4654 -72.4624 -62.852 -72.0758L85.6405 76.4166ZM71.716 88.1128C64.0298 93.5046 55.7147 97.7263 47.0487 100.741L-21.9407 -97.6037C-31.3688 -94.3244 -40.4571 -89.7161 -48.8833 -83.8052L71.716 88.1128ZM12.554 106.568C44.1182 106.568 65.574 92.4184 70.8061 88.9303C75.1298 86.0478 78.5253 83.3188 80.8984 81.2847C82.1397 80.2206 83.2455 79.2225 84.2094 78.3228C84.6949 77.8697 85.1538 77.4328 85.5855 77.015C85.8016 76.8058 86.0119 76.6005 86.2162 76.3995C86.3183 76.2989 86.4191 76.1993 86.5185 76.1007C86.5682 76.0514 86.6175 76.0024 86.6665 75.9536C86.691 75.9292 86.7154 75.9048 86.7398 75.8805C86.7519 75.8684 86.7701 75.8502 86.7762 75.8441C86.7944 75.826 86.8125 75.8078 12.565 1.5629C-61.6825 -72.682 -61.6643 -72.7002 -61.6461 -72.7183C-61.6401 -72.7244 -61.6219 -72.7426 -61.6097 -72.7547C-61.5854 -72.779 -61.5609 -72.8034 -61.5364 -72.8278C-61.4874 -72.8766 -61.4381 -72.9256 -61.3884 -72.9749C-61.2891 -73.0735 -61.1883 -73.1731 -61.0861 -73.2736C-60.8819 -73.4746 -60.6717 -73.6799 -60.4555 -73.889C-60.0239 -74.3068 -59.5652 -74.7436 -59.0799 -75.1965C-58.1162 -76.0959 -57.0109 -77.0936 -55.7702 -78.1572C-53.3984 -80.1902 -50.0045 -82.9178 -45.6829 -85.799C-41.5314 -88.5667 -35.0158 -92.4913 -26.4385 -95.9223C-18.0755 -99.2676 -4.5547 -103.432 12.554 -103.432V106.568ZM46.2742 101.005C36.6226 104.277 27.2033 105.852 18.4977 106.26L8.66472 -103.51C-0.747802 -103.068 -10.8408 -101.372 -21.1441 -97.879L46.2742 101.005ZM22.5483 105.992C4.04059 107.578 -17.0403 104.089 -36.6835 92.6423L69.0482 -88.7986C47.8697 -101.14 25.0547 -104.993 4.61407 -103.241L22.5483 105.992ZM-34.6047 93.8222C-45.9272 87.565 -54.4659 80.0248 -60.652 73.2112C-63.7559 69.7924 -66.3652 66.4514 -68.548 63.3521C-69.6444 61.7954 -70.649 60.2773 -71.5688 58.8128C-72.0292 58.0797 -72.4702 57.3572 -72.8924 56.6471C-73.1036 56.2919 -73.3103 55.9394 -73.5126 55.5899C-73.6138 55.4151 -73.7139 55.241 -73.8129 55.0676C-73.8624 54.9809 -73.9117 54.8944 -73.9606 54.8081C-73.9851 54.7649 -74.0096 54.7218 -74.0339 54.6787C-74.0461 54.6572 -74.0644 54.6249 -74.0704 54.6141C-74.0886 54.5818 -74.1068 54.5496 17.3642 2.99325C108.835 -48.5631 108.817 -48.5954 108.799 -48.6276C108.793 -48.6384 108.774 -48.6707 108.762 -48.6923C108.738 -48.7354 108.713 -48.7786 108.689 -48.8218C108.64 -48.9083 108.59 -48.995 108.541 -49.082C108.441 -49.256 108.341 -49.431 108.239 -49.6069C108.035 -49.9588 107.827 -50.3147 107.613 -50.6744C107.185 -51.3937 106.736 -52.1297 106.264 -52.8803C105.323 -54.3798 104.285 -55.949 103.143 -57.57C100.87 -60.7976 98.1225 -64.3195 94.828 -67.9482C88.261 -75.1815 79.1313 -83.2574 66.9694 -89.9785L-34.6047 93.8222ZM-77.0298 48.98C-60.371 83.1744 -26.7914 105.549 10.7574 108.109L25.0424 -101.405C41.614 -100.275 59.5785 -95.0316 76.1304 -83.9128C92.6909 -72.7882 104.406 -58.0849 111.758 -42.9935L-77.0298 48.98ZM17.8999 108.352C12.4826 108.352 8.24934 107.911 7.42337 107.828C5.69372 107.655 4.2491 107.466 3.2097 107.319C1.08509 107.019 -0.786121 106.688 -2.3503 106.38C-5.5363 105.753 -8.63314 104.99 -11.634 104.108C-17.6714 102.334 -24.078 99.8568 -30.5882 96.4467C-44.0678 89.3859 -56.959 78.8386 -67.0766 64.5656L104.246 -56.8782C93.8191 -71.5874 80.5938 -82.3805 66.8532 -89.5779C60.2125 -93.0564 53.6938 -95.5743 47.5748 -97.3725C44.5331 -98.2664 41.403 -99.0375 38.193 -99.6691C36.6168 -99.9793 34.7359 -100.312 32.6041 -100.613C31.5611 -100.761 30.1135 -100.95 28.3815 -101.123C27.5531 -101.206 23.3182 -101.648 17.8999 -101.648V108.352ZM-67.3385 64.1945C-90.3694 31.4046 -86.4587 -1.32192 -83.9984 -13.1313L121.587 29.6991C125.208 12.3229 128.19 -22.7894 104.508 -56.507L-67.3385 64.1945ZM-83.8747 -13.7167C-94.4632 35.6962 -68.7108 83.7246 -25.5386 104.041L63.8788 -85.971C106.488 -65.9198 131.92 -18.5099 121.464 30.2845L-83.8747 -13.7167ZM-81.9993 37.1376C-86.1019 22.3682 -86.1343 9.7051 -85.5166 1.50672C-84.8762 -6.99284 -83.2964 -13.797 -82.0305 -18.2716L120.039 38.8929C122.263 31.0313 127.983 8.45074 120.339 -19.0676L-81.9993 37.1376ZM-82.0123 -18.3358C-81.2514 -21.0192 -80.0464 -24.812 -78.1902 -29.2637C-76.3837 -33.5961 -73.4452 -39.8011 -68.8414 -46.7068L105.889 69.7802C114.625 56.677 118.434 44.5554 120.021 38.9572L-82.0123 -18.3358ZM36.5147 -91.9105C18.5794 -95.0297 -3.36722 -93.98 -25.3064 -84.0076L61.5922 107.169C39.8959 117.031 18.2144 118.059 0.533097 114.984L36.5147 -91.9105ZM-22.6031 -85.1908C-55.2918 -71.4272 -79.4131 -41.8761 -85.6885 -6.01648L121.168 30.1834C114.97 65.6012 91.1578 94.7657 58.8888 108.353L-22.6031 -85.1908ZM-85.6885 -6.01648C-84.3662 -13.5724 -81.9107 -22.2948 -77.5311 -31.4521L111.917 59.1535C116.783 48.9801 119.614 39.0648 121.168 30.1834L-85.6885 -6.01648ZM-77.813 -30.858C-84.333 -17.003 -87.8733 -1.65911 -87.8733 14.1434H122.127C122.127 29.7471 118.631 44.8922 112.199 58.5594L-77.813 -30.858ZM-87.8733 14.1434V16.2199H122.127V14.1434H-87.8733ZM-87.8733 16.2199C-87.8733 57.3813 -64.2677 93.4713 -29.3282 110.941L64.5867 -76.8887C98.9077 -59.7282 122.127 -24.2457 122.127 16.2199H-87.8733ZM-28.2024 111.496C-30.0378 110.605 -31.652 109.749 -33.2182 108.829C-34.7117 107.953 -37.2408 106.39 -40.3228 104.002L88.2723 -62.0196C77.2539 -70.5541 67.0775 -75.6886 63.4609 -77.4432L-28.2024 111.496ZM-40.4502 103.904C-65.7346 84.2569 -79.7219 54.4096 -79.7219 23.6809H130.278C130.278 -9.14633 115.319 -41.0039 88.3997 -61.9207L-40.4502 103.904ZM-79.7219 23.6809V25.1168H130.278V23.6809H-79.7219ZM-79.7219 25.1168C-79.7219 -32.5859 -32.9493 -79.3586 24.7534 -79.3586V130.641C83.0305 130.641 130.278 83.3939 130.278 25.1168H-79.7219ZM24.7534 -79.3586H2.74585V130.641H24.7534V-79.3586ZM0.765069 -79.3399C60.3872 -80.4648 107.216 -32.1884 107.216 25.1168H-102.784C-102.784 83.0073 -55.4809 131.759 4.72663 130.623L0.765069 -79.3399Z" fill="white" mask="url(#path-2-inside-1_12227_8)"/>
</g>
<defs>
<clipPath id="clip0_12227_8">
<rect x="0.25" width="27" height="27" rx="3" fill="white"/>
</clipPath>
</defs>
</svg>
